<svg width="500" height="500" viewBox="0 0 500 500" fill="none" xmlns="http://www.w3.org/2000/svg">
<path d="M209.375 52.7077L83.9587 134.583C43.7504 160.833 43.7504 219.583 83.9587 245.833L209.375 327.708C231.875 342.499 268.959 342.499 291.459 327.708L416.25 245.833C456.25 219.583 456.25 161.041 416.25 134.791L291.459 52.9161C268.959 37.9161 231.875 37.9161 209.375 52.7077Z" stroke="#F8F8F8" stroke-width="30" stroke-linecap="round" stroke-linejoin="round"/>
<path d="M117.292 272.5L117.083 370.209C117.083 396.667 137.5 425 162.5 433.334L228.958 455.417C240.417 459.167 259.375 459.167 271.042 455.417L337.5 433.334C362.5 425 382.916 396.667 382.916 370.209V273.542" stroke="#F8F8F8" stroke-width="30" stroke-linecap="round" stroke-linejoin="round"/>
<path d="M445.831 312.5V187.5" stroke="#F8F8F8" stroke-width="30" stroke-linecap="round" stroke-linejoin="round"/>
</svg>
