<svg width="2000" height="1778" viewBox="0 0 2000 1778" fill="none" xmlns="http://www.w3.org/2000/svg">
<path d="M1439.22 1438.99C1135.72 1742.42 642.007 1742.32 338.885 1438.99C35.4841 1135.58 35.4841 642.116 338.885 338.646C642.389 35.3146 1135.75 35.3146 1439.22 338.646C1460.93 360.361 1496.1 360.361 1517.8 338.646C1539.52 316.938 1539.52 281.771 1517.8 260.035C1344.71 86.9461 1117.46 0.280106 890.027 0.00233038C661.799 -0.518152 433.676 86.1476 260.031 259.792C86.6643 433.09 0 660.866 0 885.517C0 1113.26 86.666 1341.07 260.033 1514.33C433.328 1690.72 661.105 1777.52 885.756 1777.52C1113.5 1777.52 1341.31 1690.86 1514.57 1517.46C1536.29 1495.74 1536.29 1460.58 1514.57 1438.85C1495.82 1417.11 1460.75 1417.11 1439.22 1438.99ZM1372.21 495.589C1393.92 473.881 1393.92 438.714 1372.21 417.013C1246.27 291.042 1078.81 221.667 900.686 221.667C722.562 221.667 555.064 291.042 429.162 417.013C169.164 677.081 169.164 1100.34 429.162 1360.41C555.168 1486.38 722.701 1555.76 900.686 1555.76C1078.81 1555.76 1246.31 1486.38 1372.21 1360.41C1393.92 1338.69 1393.92 1303.53 1372.21 1281.8C1350.5 1260.08 1315.34 1260.08 1293.63 1281.8C1188.67 1386.76 1049.05 1444.58 900.582 1444.58C752.076 1444.58 612.494 1386.76 507.529 1281.8C290.864 1065.06 290.864 715.483 507.529 495.693C612.494 390.729 752.076 332.917 900.582 332.917C1048.98 332.917 1188.57 390.729 1293.63 495.693C1315.27 517.464 1350.34 517.464 1372.21 495.589ZM1761.79 349.062C1751.37 338.583 1737.26 332.67 1722.49 332.67C1707.71 332.67 1693.74 338.68 1683.32 349.062L1182.98 849.406C1172.34 860.045 1166.48 874.538 1166.69 889.579C1166.91 904.621 1173.21 918.944 1184.17 929.197L1716.81 1429.54C1727.56 1439.63 1741.23 1444.63 1754.9 1444.63C1769.23 1444.63 1783.45 1439.14 1794.3 1428.24C1937.53 1284 2005.52 1090.88 1999.65 895.604C1993.73 700.101 1914.22 502.533 1761.79 349.062ZM1751.72 1309.82L1302.07 887.6L1720.82 468.853C1932.97 717.462 1945.82 1074.75 1751.72 1309.82ZM830.201 579.963C830.201 533.922 792.909 496.596 746.868 496.596C700.827 496.596 663.535 536.908 663.535 579.963C663.535 623.019 700.827 663.331 746.868 663.331C792.909 663.331 830.201 628.921 830.201 579.963ZM444.092 916.419C444.092 962.461 481.418 999.787 527.46 999.787C573.501 999.787 610.827 962.461 610.827 916.419C610.827 870.378 573.605 829.962 524.647 829.962C475.689 829.962 444.092 870.239 444.092 916.419ZM857.978 1333.43C904.02 1333.43 941.346 1296.1 941.346 1250.06C941.346 1204.02 904.02 1166.7 857.978 1166.7C811.937 1166.7 774.611 1204.02 774.611 1250.06C774.611 1296.1 814.923 1333.43 857.978 1333.43ZM1583.67 888.642C1537.63 888.642 1500.3 925.968 1500.3 972.009C1500.3 1018.05 1537.63 1055.38 1583.67 1055.38C1629.71 1055.38 1667.03 1018.05 1667.03 972.009C1667.03 925.968 1629.5 888.642 1583.67 888.642Z" fill="#F7C873"/>
</svg>
